<mxfile host="app.diagrams.net" modified="2023-06-09T09:54:56.053Z" agent="Mozilla/5.0 (Windows NT 10.0; Win64; x64) AppleWebKit/537.36 (KHTML, like Gecko) Chrome/116.0.0.0 Safari/537.36" etag="lDl8jT23fl9FcBoHzm0n" version="21.3.7" type="github">
  <diagram name="第 1 页" id="26voh_bSXtOIAJ9s_k0m">
    <mxGraphModel dx="1221" dy="631" grid="1" gridSize="10" guides="1" tooltips="1" connect="1" arrows="1" fold="1" page="1" pageScale="1" pageWidth="1654" pageHeight="1169" math="0" shadow="0">
      <root>
        <mxCell id="0" />
        <mxCell id="1" parent="0" />
        <mxCell id="EiQ2Ghm5KRCCHnsel5LX-7" value="" style="edgeStyle=orthogonalEdgeStyle;rounded=0;orthogonalLoop=1;jettySize=auto;html=1;" edge="1" parent="1" source="EiQ2Ghm5KRCCHnsel5LX-1" target="EiQ2Ghm5KRCCHnsel5LX-6">
          <mxGeometry relative="1" as="geometry" />
        </mxCell>
        <mxCell id="EiQ2Ghm5KRCCHnsel5LX-1" value="dubbo" style="rounded=0;whiteSpace=wrap;html=1;" vertex="1" parent="1">
          <mxGeometry x="650" y="365" width="90" height="40" as="geometry" />
        </mxCell>
        <mxCell id="EiQ2Ghm5KRCCHnsel5LX-9" value="" style="edgeStyle=orthogonalEdgeStyle;rounded=0;orthogonalLoop=1;jettySize=auto;html=1;" edge="1" parent="1" source="EiQ2Ghm5KRCCHnsel5LX-6" target="EiQ2Ghm5KRCCHnsel5LX-8">
          <mxGeometry relative="1" as="geometry" />
        </mxCell>
        <mxCell id="EiQ2Ghm5KRCCHnsel5LX-6" value="nacos" style="rounded=0;whiteSpace=wrap;html=1;" vertex="1" parent="1">
          <mxGeometry x="820" y="365" width="90" height="40" as="geometry" />
        </mxCell>
        <mxCell id="EiQ2Ghm5KRCCHnsel5LX-11" value="" style="edgeStyle=orthogonalEdgeStyle;rounded=0;orthogonalLoop=1;jettySize=auto;html=1;" edge="1" parent="1" source="EiQ2Ghm5KRCCHnsel5LX-8" target="EiQ2Ghm5KRCCHnsel5LX-10">
          <mxGeometry relative="1" as="geometry" />
        </mxCell>
        <mxCell id="EiQ2Ghm5KRCCHnsel5LX-8" value="shiro" style="rounded=0;whiteSpace=wrap;html=1;" vertex="1" parent="1">
          <mxGeometry x="990" y="365" width="90" height="40" as="geometry" />
        </mxCell>
        <mxCell id="EiQ2Ghm5KRCCHnsel5LX-13" value="" style="edgeStyle=orthogonalEdgeStyle;rounded=0;orthogonalLoop=1;jettySize=auto;html=1;" edge="1" parent="1" source="EiQ2Ghm5KRCCHnsel5LX-10" target="EiQ2Ghm5KRCCHnsel5LX-12">
          <mxGeometry relative="1" as="geometry" />
        </mxCell>
        <mxCell id="EiQ2Ghm5KRCCHnsel5LX-10" value="zookeeper" style="rounded=0;whiteSpace=wrap;html=1;" vertex="1" parent="1">
          <mxGeometry x="1160" y="365" width="90" height="40" as="geometry" />
        </mxCell>
        <mxCell id="EiQ2Ghm5KRCCHnsel5LX-15" value="" style="edgeStyle=orthogonalEdgeStyle;rounded=0;orthogonalLoop=1;jettySize=auto;html=1;" edge="1" parent="1" source="EiQ2Ghm5KRCCHnsel5LX-12" target="EiQ2Ghm5KRCCHnsel5LX-14">
          <mxGeometry relative="1" as="geometry" />
        </mxCell>
        <mxCell id="EiQ2Ghm5KRCCHnsel5LX-12" value="activiti" style="rounded=0;whiteSpace=wrap;html=1;" vertex="1" parent="1">
          <mxGeometry x="1160" y="485" width="90" height="40" as="geometry" />
        </mxCell>
        <mxCell id="EiQ2Ghm5KRCCHnsel5LX-14" value="RabbitMQ" style="rounded=0;whiteSpace=wrap;html=1;" vertex="1" parent="1">
          <mxGeometry x="990" y="485" width="90" height="40" as="geometry" />
        </mxCell>
        <mxCell id="EiQ2Ghm5KRCCHnsel5LX-20" style="edgeStyle=orthogonalEdgeStyle;rounded=0;orthogonalLoop=1;jettySize=auto;html=1;exitX=1;exitY=0.5;exitDx=0;exitDy=0;entryX=0;entryY=0.5;entryDx=0;entryDy=0;" edge="1" parent="1" source="EiQ2Ghm5KRCCHnsel5LX-16" target="EiQ2Ghm5KRCCHnsel5LX-1">
          <mxGeometry relative="1" as="geometry" />
        </mxCell>
        <mxCell id="EiQ2Ghm5KRCCHnsel5LX-16" value="Spring" style="rounded=0;whiteSpace=wrap;html=1;" vertex="1" parent="1">
          <mxGeometry x="370" y="280" width="90" height="40" as="geometry" />
        </mxCell>
        <mxCell id="EiQ2Ghm5KRCCHnsel5LX-23" style="edgeStyle=orthogonalEdgeStyle;rounded=0;orthogonalLoop=1;jettySize=auto;html=1;exitX=1;exitY=0.5;exitDx=0;exitDy=0;" edge="1" parent="1" source="EiQ2Ghm5KRCCHnsel5LX-18" target="EiQ2Ghm5KRCCHnsel5LX-1">
          <mxGeometry relative="1" as="geometry" />
        </mxCell>
        <mxCell id="EiQ2Ghm5KRCCHnsel5LX-18" value="Mysql" style="rounded=0;whiteSpace=wrap;html=1;" vertex="1" parent="1">
          <mxGeometry x="370" y="365" width="90" height="40" as="geometry" />
        </mxCell>
        <mxCell id="EiQ2Ghm5KRCCHnsel5LX-22" style="edgeStyle=orthogonalEdgeStyle;rounded=0;orthogonalLoop=1;jettySize=auto;html=1;exitX=1;exitY=0.5;exitDx=0;exitDy=0;entryX=0;entryY=0.5;entryDx=0;entryDy=0;" edge="1" parent="1" source="EiQ2Ghm5KRCCHnsel5LX-19" target="EiQ2Ghm5KRCCHnsel5LX-1">
          <mxGeometry relative="1" as="geometry" />
        </mxCell>
        <mxCell id="EiQ2Ghm5KRCCHnsel5LX-19" value="Redis" style="rounded=0;whiteSpace=wrap;html=1;" vertex="1" parent="1">
          <mxGeometry x="370" y="450" width="90" height="40" as="geometry" />
        </mxCell>
      </root>
    </mxGraphModel>
  </diagram>
</mxfile>
